<svg width="22" height="21" viewBox="0 0 22 21" fill="none" xmlns="http://www.w3.org/2000/svg">
<path fill-rule="evenodd" clip-rule="evenodd" d="M9.84632 0.927022L7.51932 5.64202C7.33232 6.02102 6.97032 6.28402 6.55132 6.34502L1.34832 7.10102C0.294317 7.25402 -0.127682 8.55102 0.636318 9.29402L4.40132 12.964C4.55054 13.1096 4.66217 13.2892 4.72662 13.4874C4.79107 13.6856 4.80641 13.8966 4.77132 14.102L3.88232 19.284C3.70232 20.335 4.80432 21.135 5.74732 20.64L10.4013 18.193C10.5857 18.096 10.7909 18.0453 10.9993 18.0453C11.2077 18.0453 11.4129 18.096 11.5973 18.193L16.2513 20.64C17.1953 21.135 18.2973 20.335 18.1173 19.284L17.2283 14.102C17.1933 13.8966 17.2087 13.6857 17.2731 13.4874C17.3376 13.2892 17.4492 13.1096 17.5983 12.964L21.3633 9.29402C22.1263 8.55102 21.7053 7.25402 20.6503 7.10102L15.4483 6.34502C15.0293 6.28402 14.6663 6.02102 14.4793 5.64202L12.1533 0.927022C11.6813 -0.028978 10.3183 -0.028978 9.84632 0.927022" fill="#D5D5D5"/>
</svg>
