<svg width="current" height="current" viewBox="0 0 20 20" fill="#79482E" xmlns="http://www.w3.org/2000/svg" style="position: absolute; top: 50%; left: 50%; transform: translate(-50%, -50%); ">
<g id="icon-user-mono">
<path id="Vector" fill-rule="evenodd" clip-rule="evenodd" d="M14.0723 5.53676C14.0724 6.07244 13.9669 6.60289 13.762 7.09782C13.557 7.59275 13.2566 8.04246 12.8779 8.42129C12.4991 8.80011 12.0494 9.10063 11.5546 9.30567C11.0597 9.51072 10.5293 9.61629 9.99357 9.61634C8.91171 9.61645 7.87411 9.18679 7.10904 8.42188C6.34397 7.65696 5.91409 6.61945 5.91398 5.53759C5.91393 5.00191 6.01939 4.47146 6.22433 3.97653C6.42928 3.4816 6.7297 3.03189 7.10845 2.65306C7.87336 1.88799 8.91087 1.45812 9.99273 1.45801C11.0746 1.4579 12.1122 1.88756 12.8773 2.65247C13.6423 3.41739 14.0722 4.4549 14.0723 5.53676ZM9.99315 10.8643C4.11898 10.8643 1.83398 14.6026 1.83398 16.3418C1.83398 18.0801 6.69815 18.5434 9.99315 18.5434C13.2881 18.5434 18.1523 18.0801 18.1523 16.3418C18.1523 14.6026 15.8673 10.8643 9.99315 10.8643Z"/>
</g>
</svg>
