<svg width="16" height="14" viewBox="0 0 16 14" fill="none" xmlns="http://www.w3.org/2000/svg">
<path id="Vector" d="M10.6909 7.15235C10.6909 7.00136 10.6909 6.85036 10.6909 6.69936C10.6909 4.6372 10.7 2.57416 10.6826 0.511994C10.6798 0.140647 10.7662 -0.00596039 11.186 0.000184835C12.6247 0.0221321 14.0634 0.0177426 15.5021 0.00194061C15.8833 -0.00244883 16.0009 0.123967 16 0.483902C15.9899 4.82858 15.9899 9.17238 16 13.5171C16 13.8752 15.8861 14.0043 15.503 13.9999C14.0184 13.9841 12.5338 13.9841 11.0491 13.9999C10.7028 14.0034 10.4943 13.8945 10.3004 13.6198C8.78824 11.4742 7.26045 9.3383 5.73542 7.19976C5.64355 7.07159 5.54341 6.9478 5.3413 6.84333C5.33119 6.99082 5.31282 7.13831 5.31282 7.28667C5.31098 9.36376 5.30363 11.4408 5.31925 13.5179C5.322 13.8752 5.21819 14.0043 4.83142 13.9999C3.39274 13.9823 1.95407 13.985 0.515392 13.9981C0.154345 14.0025 -0.000914643 13.9147 4.0518e-06 13.5346C0.0110284 9.17589 0.0101097 4.81717 4.0518e-06 0.458443C4.0518e-06 0.109043 0.126784 0.000184834 0.480481 0.00369639C1.97979 0.0159868 3.48002 0.0168647 4.97933 0.00194061C5.30914 -0.00157094 5.50758 0.108165 5.6904 0.366265C7.20533 2.51095 8.7322 4.64685 10.2572 6.78452C10.3555 6.92235 10.463 7.05403 10.5668 7.18835L10.6909 7.15323V7.15235Z" fill="white"/>
</svg>
