<svg width="current" height="current" viewBox="0 0 16 16" fill="currentColor" xmlns="http://www.w3.org/2000/svg">
<g id="icon / arrow1">
<path id="Vector" fill-rule="evenodd" clip-rule="evenodd" d="M14.3001 5.37496C14.3001 5.51283 14.273 5.64936 14.2201 5.7767C14.1673 5.90403 14.0898 6.01967 13.9921 6.11696L8.74208 11.367C8.64457 11.4645 8.5288 11.5419 8.40139 11.5947C8.27397 11.6475 8.13741 11.6746 7.99949 11.6746C7.86158 11.6746 7.72501 11.6475 7.5976 11.5947C7.47018 11.5419 7.35442 11.4645 7.25691 11.367L2.00691 6.11696C1.90601 6.02022 1.82545 5.90431 1.76994 5.77602C1.71443 5.64774 1.68509 5.50966 1.68365 5.36989C1.68221 5.23011 1.70869 5.09146 1.76154 4.96205C1.81439 4.83265 1.89254 4.7151 1.99142 4.6163C2.0903 4.5175 2.20791 4.43943 2.33736 4.38668C2.46681 4.33394 2.60548 4.30756 2.74525 4.30912C2.88503 4.31067 3.02308 4.34011 3.15132 4.39572C3.27957 4.45133 3.39542 4.53199 3.49208 4.63296L8.00008 9.1398L12.5069 4.63296C12.6537 4.4859 12.8408 4.3857 13.0446 4.34503C13.2483 4.30436 13.4596 4.32506 13.6515 4.4045C13.8435 4.48395 14.0076 4.61856 14.1231 4.79132C14.2385 4.96407 14.3001 5.16719 14.3001 5.37496Z" fill="currentColor"/>
</g>
</svg>
