<svg width="26" height="26" viewBox="0 0 26 26" fill="none" xmlns="http://www.w3.org/2000/svg">
<g id="share">
<path id="Vector" d="M19.5 17.4633C18.6767 17.4633 17.94 17.7883 17.3767 18.2975L9.6525 13.8016C9.70667 13.5525 9.75 13.3033 9.75 13.0433C9.75 12.7833 9.70667 12.5341 9.6525 12.285L17.29 7.83246C17.875 8.37413 18.6442 8.70996 19.5 8.70996C21.2983 8.70996 22.75 7.25829 22.75 5.45996C22.75 3.66163 21.2983 2.20996 19.5 2.20996C17.7017 2.20996 16.25 3.66163 16.25 5.45996C16.25 5.71996 16.2933 5.96913 16.3475 6.21829L8.71 10.6708C8.125 10.1291 7.35583 9.79329 6.5 9.79329C4.70167 9.79329 3.25 11.245 3.25 13.0433C3.25 14.8416 4.70167 16.2933 6.5 16.2933C7.35583 16.2933 8.125 15.9575 8.71 15.4158L16.4233 19.9225C16.3692 20.15 16.3367 20.3883 16.3367 20.6266C16.3367 22.3708 17.7558 23.79 19.5 23.79C21.2442 23.79 22.6633 22.3708 22.6633 20.6266C22.6633 18.8825 21.2442 17.4633 19.5 17.4633ZM19.5 4.37663C20.0958 4.37663 20.5833 4.86413 20.5833 5.45996C20.5833 6.05579 20.0958 6.54329 19.5 6.54329C18.9042 6.54329 18.4167 6.05579 18.4167 5.45996C18.4167 4.86413 18.9042 4.37663 19.5 4.37663ZM6.5 14.1266C5.90417 14.1266 5.41667 13.6391 5.41667 13.0433C5.41667 12.4475 5.90417 11.96 6.5 11.96C7.09583 11.96 7.58333 12.4475 7.58333 13.0433C7.58333 13.6391 7.09583 14.1266 6.5 14.1266ZM19.5 21.7316C18.9042 21.7316 18.4167 21.2441 18.4167 20.6483C18.4167 20.0525 18.9042 19.565 19.5 19.565C20.0958 19.565 20.5833 20.0525 20.5833 20.6483C20.5833 21.2441 20.0958 21.7316 19.5 21.7316Z" fill="#333333"/>
</g>
</svg>
