<svg width="24" height="12" viewBox="0 0 24 6" fill="none" xmlns="http://www.w3.org/2000/svg">
<g filter="url(#filter0_d_124_605)">
<path d="M6 0C4.9 0 4 0.9 4 2C4 3.1 4.9 4 6 4C7.1 4 8 3.1 8 2C8 0.9 7.1 0 6 0ZM18 0C16.9 0 16 0.9 16 2C16 3.1 16.9 4 18 4C19.1 4 20 3.1 20 2C20 0.9 19.1 0 18 0ZM12 0C10.9 0 10 0.9 10 2C10 3.1 10.9 4 12 4C13.1 4 14 3.1 14 2C14 0.9 13.1 0 12 0Z" fill="black"/>
</g>
<defs>
<filter id="filter0_d_124_605" x="0" y="0" width="24" height="12" filterUnits="userSpaceOnUse" color-interpolation-filters="sRGB">
<!-- <feFlood flood-opacity="0" result="BackgroundImageFix"/> -->
<!-- <feColorMatrix in="SourceAlpha" type="matrix" values="0 0 0 0 0 0 0 0 0 0 0 0 0 0 0 0 0 0 127 0" result="hardAlpha"/> -->
<!-- <feOffset dy="4"/>
<feGaussianBlur stdDeviation="2"/> -->
<!-- <feComposite in2="hardAlpha" operator="out"/> -->
<!-- <feColorMatrix type="matrix" values="0 0 0 0 0 0 0 0 0 0 0 0 0 0 0 0 0 0 0.25 0"/> -->
<!-- <feBlend mode="normal" in2="BackgroundImageFix" result="effect1_dropShadow_124_605"/> -->
<feBlend mode="normal" in="SourceGraphic" in2="effect1_dropShadow_124_605" result="shape"/>
</filter>
</defs>
</svg>
