<svg width="16" height="16" viewBox="0 0 16 16" fill="none" xmlns="http://www.w3.org/2000/svg">
<path fill-rule="evenodd" clip-rule="evenodd" d="M7.23023 1.28464L5.67889 4.42797C5.55423 4.68064 5.31289 4.85597 5.03356 4.89664L1.56489 5.40064C0.862227 5.50264 0.580894 6.36731 1.09023 6.86264L3.60023 9.30931C3.69971 9.40634 3.77413 9.52608 3.8171 9.65823C3.86006 9.79038 3.87029 9.931 3.84689 10.068L3.25423 13.5226C3.13423 14.2233 3.86889 14.7566 4.49756 14.4266L7.60023 12.7953C7.72315 12.7306 7.85998 12.6968 7.99889 12.6968C8.13781 12.6968 8.27463 12.7306 8.39756 12.7953L11.5002 14.4266C12.1296 14.7566 12.8642 14.2233 12.7442 13.5226L12.1516 10.068C12.1282 9.931 12.1385 9.7904 12.1814 9.65826C12.2244 9.52611 12.2988 9.40637 12.3982 9.30931L14.9082 6.86264C15.4169 6.36731 15.1362 5.50264 14.4329 5.40064L10.9649 4.89664C10.6856 4.85597 10.4436 4.68064 10.3189 4.42797L8.76823 1.28464C8.45356 0.647307 7.54489 0.647307 7.23023 1.28464" fill="url(#paint0_linear_102_6857)"/>
<defs>
<linearGradient id="paint0_linear_102_6857" x1="15.168" y1="7.66671" x2="0.830163" y2="7.66671" gradientUnits="userSpaceOnUse">
<stop stop-color="#D5D5D5"/>
<stop offset="0.5049" stop-color="#E7D38D"/>
<stop offset="1" stop-color="#FFD130"/>
</linearGradient>
</defs>
</svg>
