<svg width="22" height="24" viewBox="0 0 22 24" fill="none" xmlns="http://www.w3.org/2000/svg">
<path fill-rule="evenodd" clip-rule="evenodd" d="M11.9867 6.11724C11.7906 5.92226 11.542 5.7896 11.2717 5.73574C11.0014 5.68188 10.7214 5.70919 10.4664 5.81429C10.2968 5.88461 10.1425 5.98751 10.012 6.11724L2.77067 13.4111C2.51448 13.6759 2.37212 14.0316 2.37442 14.4013C2.37672 14.771 2.52349 15.125 2.78295 15.3865C3.04241 15.648 3.39369 15.796 3.76074 15.7986C4.12779 15.8011 4.48106 15.658 4.74408 15.4001L9.60338 10.5043L9.60315 22.234C9.60315 22.6069 9.75023 22.9646 10.012 23.2283C10.2738 23.492 10.6289 23.6401 10.9991 23.6401C11.3694 23.6401 11.7244 23.492 11.9862 23.2283C12.248 22.9646 12.3951 22.6069 12.3951 22.234L12.3953 10.5069L17.2546 15.4014C17.5275 15.6762 17.8841 15.813 18.242 15.813C18.5182 15.8131 18.7881 15.7307 19.0178 15.5762C19.2475 15.4217 19.4265 15.202 19.5321 14.945C19.6378 14.6881 19.6655 14.4053 19.6116 14.1324C19.5577 13.8596 19.4247 13.609 19.2293 13.4124L11.9867 6.11724ZM20.6027 0.359863H1.39598C1.02575 0.359863 0.670672 0.508007 0.408874 0.771703C0.147076 1.0354 0 1.39305 0 1.76597C0 2.13889 0.147076 2.49654 0.408874 2.76024C0.670672 3.02394 1.02575 3.17208 1.39598 3.17208H20.604C20.9743 3.17208 21.3293 3.02394 21.5911 2.76024C21.8529 2.49654 22 2.13889 22 1.76597C22 1.39305 21.8529 1.0354 21.5911 0.771703C21.3293 0.508007 20.9743 0.359863 20.604 0.359863" fill="#737678"/>
</svg>
