<svg width="15" height="14" viewBox="0 0 15 14" fill="" xmlns="http://www.w3.org/2000/svg">
<path id="Vector" d="M1.51399 13.9491C2.2947 13.0653 2.99588 12.1995 3.26656 11.0508C2.93165 10.8186 2.57838 10.5933 2.245 10.3401C0.138398 8.73858 -0.568898 6.21283 0.47943 3.92789C1.0965 2.5828 2.12877 1.60944 3.43325 1.00002C6.65241 -0.504054 9.78669 -0.355985 12.726 1.74738C14.6437 3.11975 15.4512 5.51925 14.7508 7.57117C14.1834 9.23423 13.0196 10.3518 11.5094 11.1256C9.91745 11.9416 8.22299 12.1691 6.46201 12.0195C6.25709 12.0023 6.0124 12.067 5.83653 12.1769C4.66051 12.9149 3.40649 13.4729 2.09818 13.9109C1.97813 13.9514 1.8512 13.9748 1.72657 13.9989C1.69292 14.0052 1.65469 13.9834 1.51323 13.9483L1.51399 13.9491Z" fill="#3B1D1B"/>
</svg>
